HIERARCHY
ROOT hip
{
	OFFSET 0.000000 0.000000 0.000000 
	CHANNELS 6 Xposition Yposition Zposition Xrotation Zrotation Yrotation
	JOINT abdomen
	{
		OFFSET 0.000000 3.402643 0.000000 
		CHANNELS 3 Xrotation Zrotation Yrotation
		JOINT chest
		{
			OFFSET 0.000000 8.438565 -0.680529 
			CHANNELS 3 Xrotation Zrotation Yrotation
			JOINT neck
			{
				OFFSET 0.000000 10.207942 -0.272212 
				CHANNELS 3 Xrotation Zrotation Yrotation
				JOINT head
				{
					OFFSET 0.000000 3.130431 0.000000 
					CHANNELS 3 Xrotation Zrotation Yrotation
					End Site
					{
						OFFSET 0.000000 3.130435 0.000000 
					}
				}
			}
			JOINT lCollar
			{
				OFFSET 3.470700 6.669187 -0.816635 
				CHANNELS 3 Yrotation Zrotation Xrotation
				JOINT lShldr
				{
					OFFSET 3.198488 0.000000 0.000000 
					CHANNELS 3 Zrotation Yrotation Xrotation
					JOINT lForeArm
					{
						OFFSET 10.139888 0.000000 0.000000 
						CHANNELS 3 Yrotation Zrotation Xrotation
						JOINT lHand
						{
							OFFSET 8.370511 0.000000 0.000000 
							CHANNELS 3 Zrotation Yrotation Xrotation
							End Site
							{
								OFFSET 4.083176 0.000000 0.000000 
							}
						}
					}
				}
			}
			JOINT rCollar
			{
				OFFSET -3.470700 6.669187 -0.816635 
				CHANNELS 3 Yrotation Zrotation Xrotation
				JOINT rShldr
				{
					OFFSET -3.198488 0.000000 0.000000 
					CHANNELS 3 Zrotation Yrotation Xrotation
					JOINT rForeArm
					{
						OFFSET -10.139888 0.000000 0.000000 
						CHANNELS 3 Yrotation Zrotation Xrotation
						JOINT rHand
						{
							OFFSET -8.370511 0.000000 0.000000 
							CHANNELS 3 Zrotation Yrotation Xrotation
							End Site
							{
								OFFSET -4.083176 0.000000 0.000000 
							}
						}
					}
				}
			}
		}
	}
	JOINT lThigh
	{
		OFFSET 5.308129 -1.633274 1.361059 
		CHANNELS 3 Xrotation Zrotation Yrotation
		JOINT lShin
		{
			OFFSET -2.041588 -20.007561 0.000000 
			CHANNELS 3 Xrotation Zrotation Yrotation
			JOINT lFoot
			{
				OFFSET 0.000000 -19.190928 -1.224953 
				CHANNELS 3 Xrotation Yrotation Zrotation
				End Site
				{
					OFFSET 0.000000 -2.449906 4.627600 
				}
			}
		}
	}
	JOINT rThigh
	{
		OFFSET -5.308129 -1.633274 1.361059 
		CHANNELS 3 Xrotation Zrotation Yrotation
		JOINT rShin
		{
			OFFSET 2.041588 -20.007561 0.000000 
			CHANNELS 3 Xrotation Zrotation Yrotation
			JOINT rFoot
			{
				OFFSET 0.000000 -19.190928 -1.224953 
				CHANNELS 3 Xrotation Yrotation Zrotation
				End Site
				{
					OFFSET 0.000000 -2.449906 4.627600 
				}
			}
		}
	}
}
MOTION
Frames: 16
Frame Time: 0.016667
-0.258198 44.898914 -0.323369 0.283969 -4.208930 -3.322280 -21.804399 3.392210 -2.438430 18.458099 5.230880 -0.649599 21.525595 -6.553622 -11.903348 14.944200 10.242000 -3.997960 2.000000 -2.000000 0.000000 92.383202 178.837997 -4.192040 26.328400 -0.337383 0.060696 0.045116 0.012457 -132.468994 -2.000000 2.000000 0.000000 83.091003 -4.869540 152.977005 -27.441700 0.336181 0.063008 -0.074761 0.057335 -157.858994 -7.834254 -0.834312 -0.703176 33.960560 2.828680 2.421750 -24.143995 12.224294 5.640086 -12.883827 2.021258 8.730450 34.090706 -2.805842 -2.442295 -16.959553 -5.944618 -2.489849 
-0.234249 44.892368 -0.308389 0.234985 -4.130830 -3.337900 -21.774500 3.371420 -2.438430 18.536501 5.221380 -0.642135 21.422337 -7.085038 -11.907341 15.064700 10.007300 -4.011510 2.000000 -2.000000 0.000000 92.236702 178.789001 -4.201910 26.269800 -0.337444 0.060570 0.045067 0.011803 -132.703003 -2.000000 2.000000 0.000000 82.992897 -4.761270 152.576996 -27.461201 0.336160 0.063049 -0.074731 0.057258 -157.830002 -7.741096 -0.997417 -0.797601 33.911407 2.831149 2.423263 -24.184479 12.280674 5.659570 -12.839180 1.892709 8.732285 34.129162 -2.815961 -2.444650 -17.051285 -5.894050 -2.467999 
-0.225081 44.890053 -0.309855 0.244762 -4.081990 -3.279790 -21.774200 3.364560 -2.456720 18.546200 5.260450 -0.652371 21.630943 -7.035868 -11.967404 15.176100 10.070500 -4.007430 2.000000 -2.000000 0.000000 92.178101 178.858002 -4.250590 26.142900 -0.337578 0.060299 0.045003 0.010902 -133.024994 -2.000000 2.000000 0.000000 82.972702 -4.486660 152.020996 -27.256201 0.336385 0.062615 -0.074364 0.056286 -157.459000 -7.764308 -1.034046 -0.775873 33.902676 2.816571 2.419080 -24.141096 12.217256 5.613013 -12.822223 1.811331 8.699515 34.070915 -2.808652 -2.443392 -17.028759 -5.863355 -2.470749 
-0.215917 44.887737 -0.311320 0.254540 -4.042930 -3.211950 -21.773899 3.357710 -2.475010 18.565701 5.309310 -0.662027 21.823997 -6.990057 -12.039870 15.277800 10.133900 -3.996770 2.000000 -2.000000 0.000000 92.109703 178.917007 -4.309050 26.006100 -0.337722 0.060006 0.044943 0.009975 -133.356995 -2.000000 2.000000 0.000000 82.942703 -4.221790 151.455002 -27.041300 0.336619 0.062158 -0.074002 0.055312 -157.087997 -7.793937 -1.080644 -0.724362 33.901627 2.825533 2.412063 -24.119556 12.129298 5.562482 -12.907748 1.762880 8.655303 34.197624 -2.822728 -2.455254 -17.069025 -5.838702 -2.459360 
-0.206254 44.881695 -0.315292 0.234926 -3.925750 -3.141720 -21.813700 3.368190 -2.419060 18.506599 5.377440 -0.640576 21.964979 -6.873685 -12.164168 15.340200 10.208400 -4.029980 2.000000 -2.000000 0.000000 91.992599 178.906998 -4.289540 25.869400 -0.337864 0.059712 0.044897 0.009210 -133.630997 -2.000000 2.000000 0.000000 82.864601 -4.299840 151.416000 -27.177999 0.336470 0.062449 -0.074354 0.056261 -157.449005 -7.774458 -1.192289 -0.686246 33.873409 2.814978 2.419058 -23.996572 12.152890 5.561664 -12.912944 1.630375 8.681504 34.275574 -2.822844 -2.444418 -17.048544 -5.925129 -2.495656 
-0.196585 44.875782 -0.319264 0.215322 -3.818330 -3.061830 -21.843500 3.375490 -2.371610 18.457300 5.445580 -0.618337 22.086073 -6.765305 -12.279588 15.402600 10.282700 -4.071060 2.000000 -2.000000 0.000000 91.875397 178.886993 -4.270050 25.722900 -0.338016 0.059398 0.044855 0.008446 -133.904007 -2.000000 2.000000 0.000000 82.786400 -4.377860 151.367004 -27.324499 0.336310 0.062760 -0.074712 0.057207 -157.809998 -7.760740 -1.308230 -0.618507 33.805595 2.804594 2.417185 -23.850803 12.156700 5.543379 -12.972723 1.517391 8.702049 34.393436 -2.829059 -2.463846 -17.030670 -5.972358 -2.520856 
-0.189253 44.879517 -0.325876 0.244687 -3.828090 -2.897810 -21.882500 3.371050 -2.383280 18.418100 5.435690 -0.621683 22.243580 -6.730746 -12.359219 15.493700 10.327200 -4.075120 2.000000 -2.000000 0.000000 91.836304 178.858002 -4.240820 25.596001 -0.338148 0.059125 0.044865 0.008637 -133.835999 -2.000000 2.000000 0.000000 82.757896 -4.535630 152.089996 -27.598000 0.336009 0.063339 -0.075285 0.058686 -158.376999 -7.818151 -1.297189 -0.711360 33.795879 2.803519 2.416989 -23.844872 12.081378 5.504298 -12.988554 1.524497 8.661083 34.402222 -2.837757 -2.456557 -17.099531 -6.037092 -2.561747 
-0.181915 44.883232 -0.332488 0.274055 -3.847610 -2.743610 -21.911501 3.357800 -2.390680 18.378901 5.425790 -0.634781 22.402767 -6.708377 -12.430648 15.595200 10.380900 -4.085130 2.000000 -2.000000 0.000000 91.787498 178.828003 -4.221350 25.459299 -0.338288 0.058830 0.044875 0.008828 -133.766998 -2.000000 2.000000 0.000000 82.719704 -4.683640 152.811996 -27.881201 0.335694 0.063937 -0.075862 0.060134 -158.932999 -7.865333 -1.284516 -0.795304 33.776245 2.804192 2.417405 -23.856398 12.014371 5.473526 -12.964765 1.531598 8.624110 34.383583 -2.824463 -2.452931 -17.179956 -6.102452 -2.593641 
-0.173846 44.882210 -0.331000 0.254480 -3.847620 -2.595820 -21.891600 3.353670 -2.429640 18.427900 5.435720 -0.650055 22.292770 -6.618270 -12.487080 15.525400 10.374000 -4.128660 2.000000 -2.000000 0.000000 91.660599 178.848999 -4.611930 25.312799 -0.338438 0.058514 0.044951 0.010111 -133.309006 -2.000000 2.000000 0.000000 82.730103 -4.714230 153.417007 -28.086201 0.335465 0.064369 -0.076317 0.061248 -159.363007 -7.821671 -1.271866 -0.857713 33.738121 2.795022 2.425113 -23.873825 11.919068 5.414750 -12.917141 1.525205 8.638527 34.382305 -2.836859 -2.446879 -17.216288 -6.265390 -2.642948 
-0.165777 44.881310 -0.329512 0.234904 -3.847620 -2.448020 -21.871401 3.340470 -2.464950 18.476900 5.455410 -0.665663 22.148949 -6.523258 -12.532557 15.455600 10.367000 -4.172170 2.000000 -2.000000 0.000000 91.523903 178.860001 -4.992770 25.176100 -0.338577 0.058219 0.045035 0.011366 -132.858994 -2.000000 2.000000 0.000000 82.740501 -4.735030 154.013000 -28.281601 0.335245 0.064780 -0.076770 0.062333 -159.783005 -7.872656 -1.280650 -0.902033 33.816486 2.800230 2.435194 -23.886381 11.828227 5.368463 -12.925614 1.546390 8.665807 34.412441 -2.837325 -2.465955 -17.219067 -6.427162 -2.701973 
-0.164774 44.879257 -0.340531 0.215324 -3.828100 -2.241560 -21.773500 3.316000 -2.363790 18.584999 5.387450 -0.614056 22.275904 -6.367274 -12.758769 15.536800 10.411800 -4.236430 2.000000 -2.000000 0.000000 91.601997 179.162003 -4.699130 24.971001 -0.338785 0.057776 0.044987 0.010657 -133.113007 -2.000000 2.000000 0.000000 82.935799 -4.569020 154.013000 -28.271799 0.335256 0.064759 -0.076770 0.062333 -159.783005 -7.905568 -1.261467 -0.899510 33.904522 2.801703 2.434274 -23.941385 11.603552 5.265189 -12.838108 1.503966 8.598072 34.363213 -2.835340 -2.456401 -17.214172 -6.541930 -2.765849 
-0.163769 44.877201 -0.351554 0.185958 -3.808570 -2.024690 -21.685400 3.291190 -2.263420 18.693100 5.329230 -0.572784 22.397436 -6.217109 -12.972218 15.618100 10.456600 -4.298790 2.000000 -2.000000 0.000000 91.689796 179.464005 -4.395730 24.765900 -0.338990 0.057332 0.044941 0.009947 -133.367004 -2.000000 2.000000 0.000000 83.131104 -4.412770 154.014008 -28.261999 0.335267 0.064739 -0.076770 0.062333 -159.783005 -7.927437 -1.241498 -0.878361 33.865204 2.798346 2.424098 -23.860725 11.354343 5.150368 -12.806575 1.481196 8.524137 34.411106 -2.839483 -2.437621 -17.270674 -6.699552 -2.814886 
-0.155797 44.875267 -0.350560 0.137018 -3.789050 -1.845620 -21.556299 3.181070 -2.084810 18.870399 5.056420 -0.489881 22.379623 -6.056348 -13.241488 15.617300 10.437500 -4.410070 2.000000 -2.000000 0.000000 91.855904 179.677994 -4.365960 24.590099 -0.339165 0.056951 0.044988 0.010684 -133.102997 -2.000000 2.000000 0.000000 83.579903 -4.197170 153.662994 -28.232700 0.335300 0.064677 -0.076749 0.062283 -159.763000 -7.898917 -1.267523 -0.968419 33.934322 2.795982 2.432029 -23.884501 11.293171 5.090462 -12.727492 1.442605 8.445565 34.411877 -2.839588 -2.457069 -17.322231 -6.723293 -2.842872 
-0.147823 44.873348 -0.349567 0.078295 -3.779290 -1.665950 -21.437099 3.070440 -1.907450 19.047501 4.793270 -0.418665 22.362215 -5.880476 -13.500699 15.616900 10.427900 -4.519430 2.000000 -2.000000 0.000000 92.031700 179.882996 -4.336210 24.414301 -0.339339 0.056570 0.045039 0.011421 -132.839996 -2.000000 2.000000 0.000000 84.038498 -3.981560 153.302002 -28.193701 0.335344 0.064595 -0.076728 0.062232 -159.744003 -7.866616 -1.307314 -1.039098 33.952621 2.808471 2.425750 -23.844700 11.250080 5.034837 -12.639619 1.382890 8.339666 34.429955 -2.849790 -2.440348 -17.394917 -6.775720 -2.878584 
-0.142368 44.870895 -0.342875 -0.009788 -3.867190 -1.532540 -21.398500 3.085030 -1.868620 19.086800 4.734780 -0.394377 22.346424 -5.694729 -13.544057 15.570000 10.496800 -4.544110 2.000000 -2.000000 0.000000 91.973099 179.776001 -4.404800 24.414301 -0.339339 0.056570 0.045077 0.011939 -132.654007 -2.000000 2.000000 0.000000 84.204803 -3.982260 153.634003 -28.261999 0.335267 0.064739 -0.076728 0.062232 -159.744003 -7.807198 -1.213289 -1.103221 34.020214 2.816561 2.417256 -23.871971 11.238950 5.031611 -12.531000 1.464413 8.247479 34.391308 -2.842422 -2.438757 -17.404978 -6.830470 -2.899261 
-0.136913 44.868462 -0.336183 -0.097889 -3.955070 -1.409280 -21.360001 3.108720 -1.833350 19.135900 4.676300 -0.379138 22.345011 -5.506698 -13.582143 15.523400 10.575300 -4.567010 2.000000 -2.000000 0.000000 91.904701 179.669006 -4.483160 24.414301 -0.339339 0.056570 0.045119 0.012484 -132.459000 -2.000000 2.000000 0.000000 84.380997 -3.982980 153.966003 -28.330400 0.335190 0.064882 -0.076728 0.062232 -159.744003 -7.676182 -1.126452 -1.163288 34.002190 2.805533 2.433874 -23.889854 11.220696 5.033793 -12.353754 1.534349 8.152452 34.332348 -2.850511 -2.451700 -17.481989 -6.876417 -2.920171 
